# xmcd
#
# Track frame offsets:
#	150
#	20213
#	22912
#	39457
#	62245
#	64713
#	84740
#	101411
#	113454
#	132294
#	138056
#	152173
#	174509
#	197508
#	201245
#	223584
#	230413
#
# Disc length: 3272 seconds
#
# Revision: 0
# Processed by: cddbd v1.4PL0 Copyright (c) Steve Scherf et al.
# Submitted via: dBpowerAMP V4.0
#
DISCID=e40cc611
DTITLE=Personne Paul - Comme à la maison
DYEAR=1992
DGENRE=Blues
TTITLE0=Salut!
TTITLE1=Boom boom
TTITLE2=Le rôle on l'a dja!
TTITLE3=Général Lee
TTITLE4=Fantômes
TTITLE5=Nuits blanches étoilées
TTITLE6=Vagabondage
TTITLE7=Quelqu'un appelle
TTITLE8=Lavomatics
TTITLE9=P'tit blues
TTITLE10=En cabane sur les branches
TTITLE11=Serenity street
TTITLE12=Picnic existentiel au bord d'un lit
TTITLE13=Cow boy
TTITLE14=Le bourdon
TTITLE15=Repaire
TTITLE16=Mélancolie
EXTD=
EXTT0=
EXTT1=
EXTT2=
EXTT3=
EXTT4=
EXTT5=
EXTT6=
EXTT7=
EXTT8=
EXTT9=
EXTT10=
EXTT11=
EXTT12=
EXTT13=
EXTT14=
EXTT15=
EXTT16=
PLAYORDER=
